<?xml version="1.0" standalone="no"?><!-- Generator: Gravit.io --><svg xmlns="http://www.w3.org/2000/svg" xmlns:xlink="http://www.w3.org/1999/xlink" style="isolation:isolate" viewBox="0 0 40 40" width="40" height="40"><defs><clipPath id="_clipPath_rHkV3hw9he9HSuWxxk6nTiuMQquftMbK"><rect width="40" height="40"/></clipPath></defs><g clip-path="url(#_clipPath_rHkV3hw9he9HSuWxxk6nTiuMQquftMbK)"><path d="M 3 0 L 12 0 C 13.656 0 15 1.344 15 3 L 15 37 C 15 38.656 13.656 40 12 40 L 3 40 C 1.344 40 0 38.656 0 37 L 0 3 C 0 1.344 1.344 0 3 0 Z" style="stroke:none;fill:#EBEBEB;stroke-miterlimit:10;"/><path d="M 28.45 0 L 36.55 0 C 38.454 0 40 1.546 40 3.45 L 40 36.55 C 40 38.454 38.454 40 36.55 40 L 28.45 40 C 26.546 40 25 38.454 25 36.55 L 25 3.45 C 25 1.546 26.546 0 28.45 0 Z" style="stroke:none;fill:#EBEBEB;stroke-miterlimit:10;"/></g></svg>