<svg xmlns="http://www.w3.org/2000/svg" version="1.1" x="0" y="0" width="438.5" height="438.5" viewBox="0 0 438.5 438.5" xml:space="preserve" enable-background="new 0 0 438.536 438.536"><path d="M164.5 0H18.3C13.3 0 9 1.8 5.4 5.4 1.8 9 0 13.3 0 18.3v402c0 4.9 1.8 9.2 5.4 12.8 3.6 3.6 7.9 5.4 12.9 5.4h146.2c4.9 0 9.2-1.8 12.8-5.4 3.6-3.6 5.4-7.9 5.4-12.8V18.3c0-5-1.8-9.2-5.4-12.8C173.7 1.8 169.4 0 164.5 0zM433.1 5.4C429.5 1.8 425.2 0 420.3 0H274.1c-4.9 0-9.2 1.8-12.8 5.4-3.6 3.6-5.4 7.9-5.4 12.8v402c0 4.9 1.8 9.2 5.4 12.8 3.6 3.6 7.9 5.4 12.8 5.4h146.2c4.9 0 9.2-1.8 12.8-5.4 3.6-3.6 5.4-7.9 5.4-12.8V18.3C438.5 13.3 436.7 9 433.1 5.4z"/></svg>